<mxfile host="app.diagrams.net" modified="2020-07-13T15:05:05.620Z" agent="5.0 (X11)" etag="_dm1bgAcPpxAloV_QS5a" version="13.4.2" type="github">
  <diagram id="6a731a19-8d31-9384-78a2-239565b7b9f0" name="Page-1">
    <mxGraphModel dx="723" dy="419" grid="1" gridSize="10" guides="1" tooltips="1" connect="1" arrows="1" fold="1" page="1" pageScale="1" pageWidth="1169" pageHeight="827" background="#ffffff" math="0" shadow="0">
      <root>
        <mxCell id="0" />
        <mxCell id="1" parent="0" />
        <mxCell id="Ik28xuVyhHdR4R8abPE--1781" value="" style="edgeStyle=orthogonalEdgeStyle;rounded=0;orthogonalLoop=1;jettySize=auto;html=1;curved=1;" edge="1" parent="1" source="Ik28xuVyhHdR4R8abPE--1779" target="Ik28xuVyhHdR4R8abPE--1780">
          <mxGeometry relative="1" as="geometry" />
        </mxCell>
        <mxCell id="Ik28xuVyhHdR4R8abPE--1779" value="Operating Systems" style="rounded=1;whiteSpace=wrap;html=1;fillColor=#cdeb8b;strokeColor=#36393d;" vertex="1" parent="1">
          <mxGeometry x="517" y="380" width="135" height="67.5" as="geometry" />
        </mxCell>
        <mxCell id="Ik28xuVyhHdR4R8abPE--1783" value="" style="edgeStyle=orthogonalEdgeStyle;rounded=0;orthogonalLoop=1;jettySize=auto;html=1;curved=1;entryX=0;entryY=0.5;entryDx=0;entryDy=0;" edge="1" parent="1" source="Ik28xuVyhHdR4R8abPE--1780" target="Ik28xuVyhHdR4R8abPE--1782">
          <mxGeometry relative="1" as="geometry" />
        </mxCell>
        <mxCell id="Ik28xuVyhHdR4R8abPE--1788" value="" style="edgeStyle=orthogonalEdgeStyle;curved=1;rounded=0;orthogonalLoop=1;jettySize=auto;html=1;entryX=0;entryY=0.5;entryDx=0;entryDy=0;" edge="1" parent="1" source="Ik28xuVyhHdR4R8abPE--1780" target="Ik28xuVyhHdR4R8abPE--1785">
          <mxGeometry relative="1" as="geometry">
            <mxPoint x="960" y="473.75" as="targetPoint" />
          </mxGeometry>
        </mxCell>
        <mxCell id="Ik28xuVyhHdR4R8abPE--1780" value="System Organization" style="rounded=1;whiteSpace=wrap;html=1;fillColor=#ffff88;strokeColor=#36393d;" vertex="1" parent="1">
          <mxGeometry x="732" y="380" width="158" height="67.5" as="geometry" />
        </mxCell>
        <mxCell id="Ik28xuVyhHdR4R8abPE--1785" value="&lt;div&gt;Device Controller&lt;/div&gt;" style="rounded=1;whiteSpace=wrap;html=1;fillColor=#ffff88;strokeColor=#36393d;" vertex="1" parent="1">
          <mxGeometry x="960" y="312.5" width="158" height="67.5" as="geometry" />
        </mxCell>
        <mxCell id="Ik28xuVyhHdR4R8abPE--1782" value="Device Driver" style="rounded=1;whiteSpace=wrap;html=1;fillColor=#cce5ff;strokeColor=#36393d;" vertex="1" parent="1">
          <mxGeometry x="870" y="230" width="158" height="67.5" as="geometry" />
        </mxCell>
      </root>
    </mxGraphModel>
  </diagram>
</mxfile>
